<svg width="26" height="25" viewBox="0 0 26 25" fill="none" xmlns="http://www.w3.org/2000/svg">
<path d="M17.401 25C16.7978 25.0008 16.2079 24.8226 15.7059 24.4881C15.204 24.1535 14.8126 23.6776 14.5812 23.1206C14.3498 22.5635 14.2889 21.9503 14.4061 21.3586C14.5233 20.7669 14.8133 20.2233 15.2396 19.7964C15.6658 19.3696 16.2091 19.0789 16.8007 18.9609C17.3922 18.8429 18.0055 18.9031 18.5628 19.1337C19.1202 19.3644 19.5966 19.7552 19.9318 20.2567C20.267 20.7581 20.446 21.3478 20.446 21.951C20.4457 22.7589 20.1249 23.5336 19.5541 24.1053C18.9832 24.6769 18.2088 24.9987 17.401 25ZM17.401 20.731C17.1595 20.7306 16.9234 20.8018 16.7225 20.9357C16.5216 21.0696 16.3649 21.26 16.2723 21.483C16.1797 21.7059 16.1553 21.9513 16.2022 22.1882C16.2492 22.425 16.3653 22.6425 16.5359 22.8133C16.7066 22.9841 16.9241 23.1004 17.1608 23.1475C17.3976 23.1947 17.643 23.1705 17.8661 23.078C18.0891 22.9856 18.2797 22.8291 18.4137 22.6283C18.5477 22.4275 18.6192 22.1914 18.619 21.95C18.6206 21.7896 18.5902 21.6305 18.5295 21.482C18.4689 21.3335 18.3792 21.1986 18.2658 21.0852C18.1524 20.9717 18.0175 20.8821 17.869 20.8214C17.7205 20.7608 17.5614 20.7304 17.401 20.732V20.731ZM8.87497 25C8.27176 25.0008 7.68188 24.8226 7.17995 24.4881C6.67802 24.1535 6.2866 23.6776 6.05521 23.1206C5.82383 22.5635 5.76287 21.9503 5.88007 21.3586C5.99726 20.7669 6.28734 20.2233 6.71359 19.7964C7.13984 19.3696 7.68311 19.0789 8.27467 18.9609C8.86622 18.8429 9.47948 18.9031 10.0368 19.1337C10.5942 19.3644 11.0706 19.7552 11.4058 20.2567C11.741 20.7581 11.92 21.3478 11.92 21.951C11.9197 22.7589 11.5989 23.5336 11.0281 24.1053C10.4572 24.6769 9.68284 24.9987 8.87497 25ZM8.87497 20.731C8.63355 20.7306 8.39744 20.8018 8.19653 20.9357C7.99561 21.0696 7.83893 21.26 7.74632 21.483C7.6537 21.7059 7.62931 21.9513 7.67624 22.1882C7.72317 22.425 7.83931 22.6425 8.00995 22.8133C8.18059 22.9841 8.39806 23.1004 8.63484 23.1475C8.87161 23.1947 9.11705 23.1705 9.34007 23.078C9.5631 22.9856 9.75369 22.8291 9.88771 22.6283C10.0217 22.4275 10.0932 22.1914 10.093 21.95C10.0946 21.7896 10.0642 21.6305 10.0035 21.482C9.94288 21.3335 9.85322 21.1986 9.7398 21.0852C9.62638 20.9717 9.49147 20.8821 9.34297 20.8214C9.19447 20.7608 9.03537 20.7304 8.87497 20.732V20.731ZM20.759 17.683H5.51997C5.09697 17.683 4.70797 17.264 4.57397 16.663L1.43397 1.83H-2.08503C-2.3277 1.83 -2.56044 1.7336 -2.73203 1.562C-2.90363 1.39041 -3.00003 1.15767 -3.00003 0.915C-3.00003 0.672327 -2.90363 0.439593 -2.73203 0.267997C-2.56044 0.0964015 -2.3277 3.61611e-09 -2.08503 0L2.17697 0C2.38517 0.00502514 2.58583 0.0789008 2.74758 0.210076C2.90933 0.341251 3.02306 0.52233 3.07097 0.725L3.56597 3.05H24.101C24.2354 3.05431 24.3672 3.08871 24.4866 3.15066C24.606 3.21262 24.71 3.30055 24.791 3.408C24.8772 3.51183 24.9394 3.63345 24.9732 3.76416C25.0069 3.89486 25.0112 4.03141 24.986 4.164L22.851 13.31C22.801 13.509 22.6876 13.6864 22.528 13.8154C22.3683 13.9444 22.1711 14.0179 21.966 14.025H5.87797L6.26797 15.854H20.759C21.0016 15.854 21.2344 15.9504 21.406 16.122C21.5776 16.2936 21.674 16.5263 21.674 16.769C21.674 17.0117 21.5776 17.2444 21.406 17.416C21.2344 17.5876 21.0016 17.684 20.759 17.684V17.683ZM3.94597 4.878L5.50097 12.195H21.243L22.943 4.878H3.94297H3.94597Z" fill="#FEBD17"/>
</svg>
