<svg width="17" height="17" viewBox="0 0 17 17" fill="none" xmlns="http://www.w3.org/2000/svg">
<path d="M6.1437 8.50002L0.657797 3.01411C0.0066967 2.36301 0.0066967 1.30901 0.657797 0.657912C1.3089 0.00681105 2.3629 0.00681105 3.014 0.657912L8.4999 6.14382L13.9858 0.657912C14.6369 0.00681105 15.6909 0.00681105 16.342 0.657912C16.9931 1.30901 16.9931 2.36301 16.342 3.01411L10.8561 8.50002L16.342 13.9859C16.9931 14.637 16.9931 15.691 16.342 16.3421C16.0156 16.6668 15.5906 16.83 15.1639 16.83C14.7372 16.83 14.3122 16.6668 13.9858 16.3421L8.4999 10.8562L3.014 16.3421C2.6893 16.6668 2.2626 16.83 1.8359 16.83C1.4092 16.83 0.984197 16.6668 0.657797 16.3421C0.0066967 15.691 0.0066967 14.637 0.657797 13.9859L6.1437 8.50002Z" fill="#FEBD17"/>
</svg>
